<svg id="Group_364" data-name="Group 364" xmlns="http://www.w3.org/2000/svg" width="298.097" height="70.542" viewBox="0 0 298.097 70.542">
  <path id="Path_227" data-name="Path 227" d="M108.6,103.439l11.255-6.665a4.187,4.187,0,0,0,1.489-5.623L93.37,41.453a4.085,4.085,0,0,0-5.647-1.526L55.99,58.719A4.186,4.186,0,0,0,54.5,64.344l22,39.1H63.263a2.577,2.577,0,0,0-2.577,2.577h0a2.577,2.577,0,0,0,2.577,2.577h15a4.062,4.062,0,0,0,3.536-2.038,4.189,4.189,0,0,0,.034-4.156L59.461,62.654,77.425,52.016l15.84,28.2a2.577,2.577,0,0,0,4.494-2.525l-15.9-28.3,7.545-4.468,26.971,47.92-13.56,8.03a4.117,4.117,0,0,0-1.88,4.682,4.072,4.072,0,0,0,3.958,3.04h17.637a2.577,2.577,0,0,0,2.577-2.577h0a2.577,2.577,0,0,0-2.577-2.577Z" transform="translate(-53.966 -39.356)" fill="#ffa665"/>
  <g id="Group_364-2" data-name="Group 364" transform="translate(93.331 26.88)">
    <path id="Path_228" data-name="Path 228" d="M428.58,118.573a15.528,15.528,0,0,1,14.784,14.406,15.346,15.346,0,0,1-.928,6.361,15.13,15.13,0,0,1-3.266,5.226,14.8,14.8,0,0,1-11.243,4.882,16.675,16.675,0,0,1-9.422-3.079,11.5,11.5,0,0,1-4.751-9.671V109.346c0-.3.136-.445.447-.668l4.565-2.834a.594.594,0,0,1,.868.52v15.2A11.482,11.482,0,0,1,428.58,118.573Zm-.344,25.158a10.382,10.382,0,0,0,6.533-2.913,9.272,9.272,0,0,0,2.819-6.808,9.626,9.626,0,0,0-9.661-9.661,7.544,7.544,0,0,0-5.991,2.567c-1.856,1.835-2.234,3.858-2.3,6.471-.084,3.193.084,6.283,2.917,8.585A9.9,9.9,0,0,0,428.236,143.731Z" transform="translate(-361.501 -105.787)" fill="#080808"/>
    <path id="Path_229" data-name="Path 229" d="M517.322,137.386a14.133,14.133,0,0,1,10.487,4.538,14.784,14.784,0,0,1,4.332,10.659v1.96a.4.4,0,0,1-.413.447l-22.692,1.96a9.6,9.6,0,0,0,8.7,5.5,12.889,12.889,0,0,0,3.794-.613.5.5,0,0,1,.665.346c.458,1.709.734,2.641,1.089,4.1.137.561.271.858-.309,1.066a16.02,16.02,0,0,1-5.239.916A15.5,15.5,0,0,1,502.3,152.823a15.138,15.138,0,0,1,4.366-11A14.223,14.223,0,0,1,517.322,137.386Zm8.7,12.274a8.2,8.2,0,0,0-3.129-4.71,9.162,9.162,0,0,0-5.673-1.788,8.613,8.613,0,0,0-5.982,2.269,9.258,9.258,0,0,0-3.026,5.776Z" transform="translate(-414.216 -124.599)" fill="#080808"/>
    <path id="Path_230" data-name="Path 230" d="M720.6,150.022a.447.447,0,0,1-.447-.447V111.068a.748.748,0,0,1,.447-.8l4.367-2.615c.7-.367,1.1.061,1.1.611v41.306a.447.447,0,0,1-.447.447Z" transform="translate(-543.917 -106.819)" fill="#080808"/>
    <path id="Path_231" data-name="Path 231" d="M605.662,122.734H599l-.019-9.188a.532.532,0,0,0-.734-.52l-4.611,2.762a.867.867,0,0,0-.447.8l.034,28.321a9.844,9.844,0,0,0,1.169,4.814,7.568,7.568,0,0,0,3.3,3.163,9.888,9.888,0,0,0,6.317.584,9.993,9.993,0,0,0,1.136-.329c.142-.082.3-.138.437-.23.365-.246.327-.829.238-1.194-.337-1.381-.483-1.965-.939-3.663a.484.484,0,0,0-.608-.339,5.945,5.945,0,0,1-2.417.55,4.825,4.825,0,0,1-1.552-.537q-1.308-.652-1.307-2.82v-16.4h6.666a.447.447,0,0,0,.447-.447v-4.882A.447.447,0,0,0,605.662,122.734Z" transform="translate(-468.327 -110.069)" fill="#080808"/>
    <path id="Path_232" data-name="Path 232" d="M771.2,122.734h-6.666l-.019-9.188a.532.532,0,0,0-.734-.52l-4.611,2.762a.867.867,0,0,0-.447.8l.035,28.321a9.844,9.844,0,0,0,1.169,4.814,7.567,7.567,0,0,0,3.3,3.163,9.888,9.888,0,0,0,6.317.584,9.989,9.989,0,0,0,1.136-.329c.142-.082.3-.138.438-.23.365-.246.327-.829.238-1.194-.342-1.4-.488-1.983-.96-3.745a.4.4,0,0,0-.474-.291,6.542,6.542,0,0,1-2.53.583,4.829,4.829,0,0,1-1.552-.537q-1.308-.652-1.307-2.82v-16.4H771.2a.447.447,0,0,0,.447-.447v-4.882A.447.447,0,0,0,771.2,122.734Z" transform="translate(-566.885 -110.069)" fill="#080808"/>
    <path id="Path_233" data-name="Path 233" d="M297.1,121.827h-6.666l-.019-9.188a.532.532,0,0,0-.734-.52l-4.611,2.762a.867.867,0,0,0-.447.8L284.652,144a9.843,9.843,0,0,0,1.169,4.813,7.567,7.567,0,0,0,3.3,3.163,10.217,10.217,0,0,0,7.454.256c.142-.083.3-.138.437-.23.365-.246.327-.829.238-1.194-.343-1.407-.488-1.986-.963-3.755a.385.385,0,0,0-.459-.284,6.611,6.611,0,0,1-2.542.587,4.831,4.831,0,0,1-1.552-.537q-1.308-.652-1.307-2.819V127.6h6.666a.447.447,0,0,0,.447-.447v-4.882A.447.447,0,0,0,297.1,121.827Z" transform="translate(-284.618 -109.53)" fill="#080808"/>
    <path id="Path_234" data-name="Path 234" d="M665.116,163.089c-1.222,2.639-4.453,3.917-6.331,4.249-3.37.595-7.2.673-10.409-.756a8.652,8.652,0,0,1-4.966-9.412,8.537,8.537,0,0,1,.7-2.226c2.537-5.363,7.764-5.772,12.962-6.224,1.271-.11,2.5-.24,3.536-.387-.187-2.682-.561-3.663-1.356-4.483-1.144-1.18-3.184-1.348-4.735-1.389a9.907,9.907,0,0,0-6.395,1.728.385.385,0,0,1-.6,0l-3.719-3.4a.4.4,0,0,1,0-.666,4.867,4.867,0,0,1,.526-.456,6.725,6.725,0,0,1,.772-.6c5.546-3.717,15.3-3.73,19.3,2.305a9.888,9.888,0,0,1,.875,1.64c1.169,2.788.8,6.241.852,9.244C666.195,155.783,666.262,160.613,665.116,163.089Zm-4.381-8.576a.4.4,0,0,0-.4-.4,36.673,36.673,0,0,0-7.532.475,5.38,5.38,0,0,0-3.275,1.84c-1.658,2.3.182,5.049,2.61,5.639,2.62.637,8.094.478,8.527-3.127A41.3,41.3,0,0,0,660.735,154.513Z" transform="translate(-498.154 -124.079)" fill="#080808"/>
    <path id="Path_235" data-name="Path 235" d="M357.154,163.089c-1.222,2.639-4.453,3.917-6.331,4.249-3.37.595-7.2.673-10.409-.756a8.651,8.651,0,0,1-4.966-9.412,8.533,8.533,0,0,1,.7-2.226c2.537-5.363,7.764-5.772,12.962-6.224,1.271-.11,2.5-.24,3.536-.387-.187-2.682-.561-3.663-1.355-4.483-1.144-1.18-3.184-1.348-4.735-1.389a9.907,9.907,0,0,0-6.395,1.728.385.385,0,0,1-.6,0l-3.719-3.4a.4.4,0,0,1,0-.666,4.838,4.838,0,0,1,.526-.456,6.7,6.7,0,0,1,.772-.6c5.546-3.717,15.3-3.73,19.3,2.305a9.931,9.931,0,0,1,.875,1.64c1.169,2.788.8,6.241.852,9.244C358.232,155.783,358.3,160.613,357.154,163.089Zm-4.381-8.576a.4.4,0,0,0-.4-.4,36.673,36.673,0,0,0-7.532.475,5.38,5.38,0,0,0-3.275,1.84c-1.658,2.3.182,5.049,2.61,5.639,2.62.637,8.094.478,8.527-3.127A41.4,41.4,0,0,0,352.772,154.513Z" transform="translate(-314.805 -124.079)" fill="#080808"/>
  </g>
</svg>
